<svg width="88" height="88" viewBox="0 0 88 88" fill="none" xmlns="http://www.w3.org/2000/svg">
<path d="M0.189209 26.4142C0.189209 33.2262 2.82441 39.4316 7.1448 44.0938C2.82441 48.7561 0.189209 54.9615 0.189209 61.7735C0.189209 76.2559 12.1002 87.9963 26.7931 87.9963C33.3978 87.9963 39.4404 85.624 44.0916 81.6967C48.7429 85.624 54.7855 87.9963 61.3902 87.9963C76.0831 87.9963 87.9941 76.2559 87.9941 61.7735C87.9941 54.9615 85.3589 48.7561 81.0385 44.0938C85.3589 39.4316 87.9941 33.2262 87.9941 26.4142C87.9941 11.9318 76.0831 0.191406 61.3902 0.191406C54.7855 0.191406 48.7429 2.56371 44.0916 6.491C39.4404 2.56371 33.3978 0.191406 26.7931 0.191406C12.1002 0.191406 0.189209 11.9318 0.189209 26.4142Z" fill="#F24E1E"/>
</svg>
