<svg width="88" height="87" viewBox="0 0 88 87" fill="none" xmlns="http://www.w3.org/2000/svg">
<path fill-rule="evenodd" clip-rule="evenodd" d="M20.4286 40.3929C20.5335 40.3929 20.6383 40.3921 20.7429 40.3905V40.3929C22.4786 40.3929 23.8857 41.784 23.8857 43.5C23.8857 45.216 22.4786 46.6071 20.7429 46.6071V46.6095C20.6383 46.6079 20.5335 46.6071 20.4286 46.6071C9.14618 46.6071 0 55.6494 0 66.8036C0 77.9578 9.14618 87 20.4286 87C31.711 87 40.8571 77.9578 40.8571 66.8036C40.8571 65.0875 42.2642 63.6964 44 63.6964C45.7357 63.6964 47.1429 65.0875 47.1429 66.8036C47.1429 77.9578 56.289 87 67.5714 87C78.8538 87 88 77.9578 88 66.8036C88 55.7531 79.0232 46.7755 67.8857 46.6095V46.5918C67.7823 46.602 67.6775 46.6071 67.5714 46.6071C65.8357 46.6071 64.4286 45.216 64.4286 43.5C64.4286 41.784 65.8357 40.3929 67.5714 40.3929C67.6775 40.3929 67.7823 40.3981 67.8857 40.4082V40.3905C79.0232 40.2245 88 31.2468 88 20.1964C88 9.04225 78.8538 0 67.5714 0C56.394 0 47.3132 8.87481 47.1452 19.8857H47.1273C47.1376 19.9879 47.1429 20.0916 47.1429 20.1964C47.1429 21.9125 45.7357 23.3036 44 23.3036C42.2642 23.3036 40.8571 21.9125 40.8571 20.1964C40.8571 20.0916 40.8624 19.9879 40.8727 19.8857H40.8548C40.6868 8.87481 31.606 0 20.4286 0C9.14618 0 0 9.04225 0 20.1964C0 31.3506 9.14618 40.3929 20.4286 40.3929Z" fill="#FF8577"/>
</svg>
