<svg width="100" height="100" viewBox="0 0 100 100" fill="none" xmlns="http://www.w3.org/2000/svg">
<path d="M2.42871 50.0001C2.42871 76.273 23.727 97.5713 49.9999 97.5713C76.2727 97.5713 97.571 76.273 97.571 50.0001C97.571 23.7273 76.2727 2.429 49.9999 2.429C23.727 2.429 2.42871 23.7273 2.42871 50.0001Z" fill="#FFC700"/>
<path fill-rule="evenodd" clip-rule="evenodd" d="M49.9999 0.152185C22.4695 0.152185 0.151735 22.47 0.151734 50.0004C0.151734 77.5308 22.4695 99.8486 49.9999 99.8486C77.5303 99.8486 99.8481 77.5308 99.8481 50.0004C99.8481 22.47 77.5303 0.152185 49.9999 0.152185ZM49.9999 97.5716C23.7271 97.5716 2.4288 76.2732 2.4288 50.0004C2.4288 23.7276 23.7271 2.42925 49.9999 2.42925C76.2727 2.42925 97.5711 23.7276 97.5711 50.0004C97.5711 76.2732 76.2727 97.5716 49.9999 97.5716Z" fill="black"/>
<path d="M33.3416 42.6727C34.3563 45.2819 33.0638 48.2197 30.4546 49.2344C27.8454 50.2491 24.9076 48.9566 23.8929 46.3474C22.8781 43.7382 24.1707 40.8004 26.7799 39.7857C29.3891 38.771 32.3269 40.0635 33.3416 42.6727Z" fill="black"/>
<path d="M66.7769 29.6688C67.7916 32.278 66.4991 35.2158 63.8899 36.2305C61.2807 37.2452 58.3429 35.9527 57.3282 33.3435C56.3134 30.7343 57.606 27.7965 60.2152 26.7818C62.8244 25.7671 65.7622 27.0596 66.7769 29.6688Z" fill="black"/>
<path fill-rule="evenodd" clip-rule="evenodd" d="M19.7583 60.5409L20.171 61.602C26.5779 78.076 45.1265 86.2371 61.6006 79.8302C78.0746 73.4233 86.2357 54.8747 79.8288 38.4006L79.4161 37.3395L81.5383 36.5141L81.951 37.5753C88.8137 55.2214 80.072 75.0897 62.4259 81.9524C44.7798 88.8151 24.9115 80.0734 18.0488 62.4273L17.6361 61.3662L19.7583 60.5409Z" fill="black"/>
</svg>
