<svg width="93" height="107" viewBox="0 0 93 107" fill="none" xmlns="http://www.w3.org/2000/svg">
<path d="M77.2577 28.8077C86.9114 25.7913 93 21.3782 93 16.4615C93 7.37008 72.1812 0 46.5 0C20.8188 0 0 7.37008 0 16.4615C0 21.3782 6.08865 25.7913 15.7423 28.8077C6.08865 31.824 0 36.2372 0 41.1538C0 46.0705 6.08865 50.4837 15.7423 53.5C6.08865 56.5164 0 60.9295 0 65.8462C0 70.7628 6.08865 75.176 15.7423 78.1923C6.08865 81.2087 0 85.6218 0 90.5385C0 99.6299 20.8188 107 46.5 107C72.1812 107 93 99.6299 93 90.5385C93 85.6218 86.9114 81.2087 77.2577 78.1923C86.9114 75.176 93 70.7628 93 65.8462C93 60.9295 86.9114 56.5164 77.2577 53.5C86.9114 50.4837 93 46.0705 93 41.1538C93 36.2372 86.9114 31.824 77.2577 28.8077Z" fill="#A259FF"/>
</svg>
