<svg width="186" height="65" viewBox="0 0 186 65" fill="none" xmlns="http://www.w3.org/2000/svg">
<path fill-rule="evenodd" clip-rule="evenodd" d="M177.124 43.242C181.538 39.5949 183.534 35.9518 183.534 32.5C183.534 29.0482 181.538 25.4051 177.124 21.758C172.726 18.1247 166.214 14.7423 157.949 11.8541C141.444 6.08594 118.481 2.47283 93 2.47283C67.5195 2.47283 44.5564 6.08594 28.0505 11.8541C19.7861 14.7423 13.274 18.1247 8.87643 21.758C4.46223 25.4051 2.46591 29.0482 2.46591 32.5C2.46591 35.9518 4.46223 39.5949 8.87643 43.242C13.274 46.8753 19.7861 50.2577 28.0505 53.1459C44.5564 58.9141 67.5195 62.5272 93 62.5272C118.481 62.5272 141.444 58.9141 157.949 53.1459C166.214 50.2577 172.726 46.8753 177.124 43.242ZM93 65C144.362 65 186 50.4493 186 32.5C186 14.5507 144.362 0 93 0C41.6375 0 0 14.5507 0 32.5C0 50.4493 41.6375 65 93 65Z" fill="black"/>
<path d="M24.5746 36.5554C26.35 36.5554 27.7873 35.7217 28.5482 34.3794L26.5896 33.6587C26.1527 34.4783 25.2932 34.7185 24.5886 34.7185C23.25 34.7185 22.2214 33.6446 22.2214 31.6663C22.2214 29.7446 23.25 28.6141 24.5605 28.6141C25.3214 28.6141 26.0964 28.925 26.5191 29.688L28.4918 28.9674C27.7732 27.6391 26.4064 26.7772 24.6309 26.7772C21.7141 26.7772 19.8682 28.6848 19.8682 31.6663C19.8682 34.6761 21.6436 36.5554 24.5746 36.5554Z" fill="black"/>
<path d="M30.0434 31.6663C30.0434 34.6054 32.0302 36.5554 34.9188 36.5554C37.8075 36.5554 39.8225 34.6054 39.8225 31.6663C39.8225 28.7272 37.8075 26.7772 34.9188 26.7772C32.0302 26.7772 30.0434 28.7272 30.0434 31.6663ZM32.3965 31.6663C32.3965 29.6598 33.552 28.6141 34.9188 28.6141C36.2997 28.6141 37.4552 29.6598 37.4552 31.6663C37.4552 33.6728 36.2997 34.7185 34.9188 34.7185C33.552 34.7185 32.3965 33.6728 32.3965 31.6663Z" fill="black"/>
<path d="M44.0028 34.4217V26.9467H41.7765V36.3859H48.5119V34.4217H44.0028Z" fill="black"/>
<path d="M52.4166 34.4217V26.9467H50.1903V36.3859H56.9257V34.4217H52.4166Z" fill="black"/>
<path d="M58.6041 36.3859H65.8468V34.4217H60.8305V32.5141H63.8882V30.55H60.8305V28.9109H65.8468V26.9467H58.6041V36.3859Z" fill="black"/>
<path d="M71.9415 36.5554C73.7169 36.5554 75.1542 35.7217 75.9151 34.3794L73.9565 33.6587C73.5197 34.4783 72.6601 34.7185 71.9556 34.7185C70.6169 34.7185 69.5883 33.6446 69.5883 31.6663C69.5883 29.7446 70.6169 28.6141 71.9274 28.6141C72.6883 28.6141 73.4633 28.925 73.886 29.688L75.8588 28.9674C75.1401 27.6391 73.7733 26.7772 71.9978 26.7772C69.081 26.7772 67.2351 28.6848 67.2351 31.6663C67.2351 34.6761 69.0106 36.5554 71.9415 36.5554Z" fill="black"/>
<path d="M80.4195 28.9109V36.3859H82.6317V28.9109H85.6613V26.9467H77.3899V28.9109H80.4195Z" fill="black"/>
<path d="M95.3206 28.9109V36.3859H97.5329V28.9109H100.562V26.9467H92.2911V28.9109H95.3206Z" fill="black"/>
<path d="M104.468 36.3859V32.5141H108.343V36.3859H110.57V26.9467H108.343V30.55H104.468V26.9467H102.242V36.3859H104.468Z" fill="black"/>
<path d="M112.651 36.3859H119.894V34.4217H114.877V32.5141H117.935V30.55H114.877V28.9109H119.894V26.9467H112.651V36.3859Z" fill="black"/>
<path d="M121.67 26.9467V36.3859H123.826V28.9674L126.053 36.3859H127.884L130.125 28.9674V36.3859H132.295V26.9467H128.955L126.968 33.7152L125.01 26.9467H121.67Z" fill="black"/>
<path d="M139.187 36.3859H141.61L142.174 34.7044H145.781L146.345 36.3859H148.769L145.204 26.9467H142.752L139.187 36.3859ZM143.964 29.3065L145.175 32.8957H142.78L143.964 29.3065Z" fill="black"/>
<path d="M152.537 34.4217V26.9467H150.311V36.3859H157.046V34.4217H152.537Z" fill="black"/>
<path d="M160.951 34.4217V26.9467H158.724V36.3859H165.46V34.4217H160.951Z" fill="black"/>
</svg>
