<svg width="44" height="65" viewBox="0 0 44 65" fill="none" xmlns="http://www.w3.org/2000/svg">
<path fill-rule="evenodd" clip-rule="evenodd" d="M38.6418 22.3305C41.8691 20.1574 44 16.4138 44 12.1599C44 5.4442 38.6888 0 32.1371 0H11.8629C5.31118 0 0 5.4442 0 12.1599C0 16.4134 2.13056 20.1568 5.35743 22.33C2.13056 24.5031 0 28.2464 0 32.4999C0 36.7534 2.13057 40.4968 5.35745 42.67C2.13057 44.8432 0 48.5865 0 52.84C0 59.5697 5.37845 65 11.9165 65C18.5141 65 23.9414 59.5202 23.9414 52.7295V41.4992C26.0483 43.4629 28.8476 44.6599 31.9196 44.6599H32.1353C38.687 44.6599 43.9982 39.2157 43.9982 32.4999C43.9982 28.2469 41.8681 24.5039 38.6418 22.3305ZM11.8629 24.3199C7.45538 24.3199 3.8824 27.982 3.8824 32.4999C3.8824 37.0178 7.45538 40.6802 11.8629 40.6802H20.059V32.7398C20.0584 32.7053 20.0579 32.6707 20.0575 32.6361C20.057 32.5908 20.0568 32.5454 20.0568 32.4999C20.0568 32.4557 20.057 32.4115 20.0575 32.3674C20.0578 32.3315 20.0584 32.2958 20.059 32.26V24.3199H11.8629ZM32.1905 20.3401C32.1721 20.34 32.1537 20.34 32.1353 20.34H31.9196C31.904 20.34 31.8883 20.34 31.8727 20.3401L31.8343 20.3403H23.9414V3.97962H32.1371C36.5446 3.97962 40.1176 7.64208 40.1176 12.1599C40.1176 16.6596 36.5734 20.3107 32.1905 20.3401ZM31.8489 24.3199H32.1371C32.155 24.3199 32.1729 24.3199 32.1907 24.3198C36.5727 24.3503 40.1158 28.001 40.1158 32.4999C40.1158 37.0178 36.5428 40.6802 32.1353 40.6802H31.9196C27.5763 40.6802 24.0433 37.1236 23.9414 32.6966V32.3032C24.0428 27.9003 27.538 24.3583 31.8489 24.3199ZM3.8824 52.84C3.8824 48.3222 7.45538 44.6599 11.8629 44.6599H20.059V52.7295C20.059 57.2945 16.3972 61.0204 11.9165 61.0204C7.49536 61.0204 3.8824 57.344 3.8824 52.84ZM20.0586 20.3401V3.97962H11.8629C7.45538 3.97962 3.8824 7.64208 3.8824 12.1599C3.8824 16.6778 7.45538 20.3403 11.8629 20.3403L20.0586 20.3401Z" fill="black"/>
</svg>
