<svg width="78" height="70" viewBox="0 0 78 70" fill="none" xmlns="http://www.w3.org/2000/svg">
<path fill-rule="evenodd" clip-rule="evenodd" d="M31.8777 60.9686L34.0639 62.9523C33.8739 63.501 33.7705 64.0909 33.7705 64.7052C33.7705 67.6295 36.1118 70 39 70C41.8882 70 44.2295 67.6295 44.2295 64.7052C44.2295 64.1407 44.1422 63.5969 43.9807 63.0867L46.3206 60.9635L46.4313 60.8635C54.5065 53.5649 61.5251 47.2213 66.4869 41.1708C70.0243 36.8571 72.7261 32.4479 74.0164 27.668C76.3031 27.1021 78 25.0139 78 22.5244C78 20.2194 76.5452 18.2583 74.5146 17.5312C72.7231 7.40707 64.0203 0 53.4297 0C49.6671 0 46.2238 1.45397 43.3905 3.27939C42.6054 3.7852 41.8489 4.33108 41.1249 4.90293C40.4757 4.61024 39.7566 4.44756 39 4.44756C38.2913 4.44756 37.6155 4.5903 36.9992 4.84893C36.296 4.2967 35.5625 3.76926 34.8022 3.27939C31.9689 1.45397 28.5256 0 24.763 0C14.1963 0 5.50893 7.37365 3.69035 17.4627C1.55337 18.128 0 20.1425 0 22.5244C0 25.0878 1.79922 27.2258 4.1888 27.7143C5.48405 32.4764 8.17982 36.8711 11.7058 41.1708C16.6675 47.2212 23.6861 53.5648 31.7613 60.8634L31.8777 60.9686ZM8.04435 26.9875C10.8284 36.629 20.6817 45.5502 34.4778 58.0195L36.6383 59.9799C37.3477 59.6157 38.1502 59.4105 39 59.4105C39.8988 59.4105 40.7445 59.64 41.4833 60.0444L43.7149 58.0195C57.4625 45.594 67.2951 36.6916 70.1187 27.0889C68.5761 26.1682 67.541 24.4687 67.541 22.5244C67.541 20.3954 68.782 18.56 70.5716 17.7191C68.9138 9.74874 61.9679 3.95316 53.4297 3.95316C50.0283 3.95316 46.7109 5.57835 43.853 7.76593C44.0958 8.3766 44.2295 9.04366 44.2295 9.74232C44.2295 12.6665 41.8882 15.0371 39 15.0371C36.1118 15.0371 33.7705 12.6665 33.7705 9.74232C33.7705 9.00086 33.921 8.295 34.1928 7.65435C31.3684 5.52331 28.1063 3.95316 24.763 3.95316C16.194 3.95316 9.22881 9.7906 7.60336 17.8053C9.29833 18.6811 10.459 20.4655 10.459 22.5244C10.459 24.3994 9.49642 26.0467 8.04435 26.9875ZM3.34581 20.9014C3.34581 20.9015 3.34581 20.9014 3.34581 20.9014C3.7995 20.3622 4.47507 20.0202 5.22953 20.0202C6.06252 20.0202 6.79933 20.4371 7.24754 21.076C7.24754 21.076 7.24754 21.076 7.24754 21.076C7.53434 21.4849 7.70296 21.9847 7.70296 22.5244C7.70296 23.9075 6.59555 25.0288 5.22948 25.0288C3.86342 25.0288 2.75601 23.9075 2.75601 22.5244C2.75601 21.9051 2.978 21.3385 3.34581 20.9014ZM41.4735 64.7052C41.4735 64.61 41.4683 64.516 41.458 64.4235C41.414 64.0253 41.2777 63.6553 41.0713 63.3359C40.6474 62.68 39.9277 62.2377 39.1041 62.2032L39.0877 62.2024C39.0586 62.2014 39.0294 62.201 39 62.201C37.634 62.201 36.5266 63.3222 36.5266 64.7053C36.5266 64.8195 36.5341 64.9319 36.5487 65.042C36.5575 65.1081 36.5688 65.1734 36.5826 65.2377C36.8236 66.365 37.8144 67.2096 39 67.2096C40.3661 67.2096 41.4735 66.0884 41.4735 64.7052ZM72.7705 25.0288C72.0546 25.0288 71.4098 24.7209 70.9581 24.2287C70.8936 24.1584 70.833 24.0843 70.7767 24.0068C70.4752 23.5918 70.297 23.0791 70.297 22.5244C70.297 21.8762 70.5403 21.2855 70.9394 20.8408C71.3918 20.3366 72.0447 20.0202 72.7706 20.0202C73.5345 20.0202 74.2176 20.3708 74.6713 20.9219C74.7361 21.0006 74.7963 21.0834 74.8513 21.1699C75.0998 21.5604 75.244 22.0253 75.244 22.5244C75.244 23.9075 74.1366 25.0288 72.7705 25.0288ZM39 7.23808C39.8538 7.23808 40.6066 7.67606 41.0511 8.34222C41.2705 8.67101 41.4148 9.05538 41.4591 9.47011C41.4686 9.55952 41.4735 9.65034 41.4735 9.74232C41.4735 11.1254 40.3661 12.2467 39 12.2467C37.6339 12.2467 36.5265 11.1254 36.5265 9.74232C36.5265 9.70254 36.5274 9.66298 36.5293 9.62366C36.5905 8.29567 37.6733 7.23808 39 7.23808Z" fill="black"/>
</svg>
